<?xml version="1.0" encoding="UTF-8"?>
<svg width="601px" height="154px" viewBox="0 0 601 154" version="1.1" xmlns="http://www.w3.org/2000/svg" xmlns:xlink="http://www.w3.org/1999/xlink">
    <!-- Generator: Sketch 47.1 (45422) - http://www.bohemiancoding.com/sketch -->
    <title>Yellow</title>
    <desc>Created with Sketch.</desc>
    <defs></defs>
    <g id="Welcome" stroke="none" stroke-width="1" fill="none" fill-rule="evenodd">
        <g id="04-copy-3" transform="translate(-406.000000, -134.000000)">
            <g id="Logo" transform="translate(706.810003, 210.728557) rotate(-1.000000) translate(-706.810003, -210.728557) translate(400.810003, 136.228557)">
                <g id="Yellow" transform="translate(7.000000, 2.000000)">
                    <g transform="translate(10.000000, 14.000000)" fill="#FFE180">
                        <path d="M34.8997628,46.5070726 C35.5557533,46.0863035 36.437327,45.8765999 37.544484,45.8697913 C39.8667457,45.8561742 42.8076315,46.4880086 46.3768288,47.7652945 C49.9418743,49.0425805 53.1277185,50.5309318 55.9315935,52.2262633 L64,38.4062474 C60.9843812,36.4508288 57.3888889,34.8916685 53.216291,33.7192344 C49.0436932,32.5495237 44.7949783,31.9762429 40.4701463,32.0007538 C35.409055,32.0266263 30.9458284,32.8436535 27.0790826,34.4491121 C23.2123369,36.0518472 20.2064057,38.3368001 18.061289,41.3066941 C15.9161724,44.2738648 14.8546856,47.7067409 14.8754448,51.598514 C14.8948201,54.9183681 15.7667062,57.5982175 17.495255,59.6380622 C19.2168841,61.6779069 21.2582048,63.1839604 23.6095295,64.1562229 C25.962238,65.1284853 28.9058917,66.0735135 32.4446422,66.988584 C35.4561091,67.7484193 37.646896,68.4524245 39.0225386,69.0937909 C40.3967972,69.7337955 41.0887703,70.6488661 41.09569,71.8444493 C41.0998418,72.9324572 40.683274,73.7522079 39.8432187,74.3009779 C39.0003954,74.8497478 37.8420324,75.1316222 36.3667457,75.1397925 C33.5199684,75.156133 30.0753262,74.3309355 26.0300514,72.6655616 C21.9889284,71.0015495 18.6923685,68.9834922 16.1472914,66.610028 L8,80.2775322 C11.3892843,83.0091266 15.5023725,85.1510997 20.3351127,86.7075366 C25.1720047,88.2612501 30.0365757,89.0265323 34.944049,88.9992981 C39.5290629,88.9747872 43.7321076,88.2489947 47.5462633,86.8300907 C51.3604191,85.4071016 54.4078687,83.2256388 56.6858442,80.2816173 C58.9624357,77.3375958 60.088968,73.7358673 60.0654409,69.4805171 C60.0460656,66.0081513 59.1575722,63.209833 57.4068802,61.0923707 C55.6548043,58.9735467 53.602412,57.4021309 51.2483195,56.3794852 C48.8969949,55.3527542 45.9242784,54.3314702 42.3343219,53.315633 C39.4266509,52.5517125 37.3022934,51.8381754 35.9529458,51.1695747 C34.6035983,50.5050592 33.9282325,49.598159 33.9213128,48.4556826 C33.9171609,47.5760165 34.2396204,46.9237565 34.8997628,46.5070726" id="Fill-27"></path>
                        <polygon id="Fill-29" points="69.8072716 33.2760454 67 47.5853107 82.5136539 47.4964842 74.6320139 88 92.7196821 87.8988745 100.601322 47.3967252 116.194092 47.3092653 119 33"></polygon>
                        <path d="M157.950528,33.1016073 L151.825142,64.8387785 C151.320138,67.5107754 150.165843,69.6761089 148.360895,71.3320329 C146.553226,72.9920762 144.508708,73.8269036 142.228703,73.8406343 C140.256329,73.8516189 138.62017,73.2337368 137.318866,71.9842418 C136.013478,70.73612 135.35602,69.0637191 135.34513,66.9725314 C135.341046,66.2956072 135.414551,65.6131907 135.565644,64.9307743 L141.69103,33.19223 L123.64292,33.2952103 L117.516172,65.0323816 C117.163622,67.0247081 116.992111,68.6984821 117.000278,70.0578227 C117.022058,73.931257 117.988507,77.298028 119.895544,80.1650009 C121.802581,83.0319739 124.486862,85.2288881 127.944302,86.7516242 C131.403104,88.2757334 135.439053,89.0254304 140.056233,88.999342 C145.239671,88.9691344 149.916744,87.9489424 154.080645,85.9373929 C158.245908,83.9244703 161.691097,81.1069279 164.420297,77.4820195 C167.150858,73.8584842 168.969418,69.6074553 169.873252,64.7371712 L176,33 L157.950528,33.1016073 Z" id="Fill-31"></path>
                        <path d="M214.616167,66.0807373 C213.506432,68.5104346 211.962393,70.395639 209.986791,71.7363503 C208.011189,73.0770617 205.795829,73.7556258 203.342082,73.7693065 L195.905488,73.8103487 L201.002048,47.1178799 L206.326036,47.0877823 C209.404523,47.0699974 211.824019,48.0344887 213.585894,49.9785202 C215.34366,51.9252878 216.234188,54.5383069 216.250628,57.8230497 C216.268439,60.9012136 215.724532,63.6510399 214.616167,66.0807373 M223.177566,35.9284123 C219.146899,33.9460748 214.365449,32.9692708 208.830475,33.0007365 L185.575363,33.1307034 L175,88 L200.132071,87.8604566 C206.711018,87.8248867 212.574803,86.5402663 217.728905,84.0079635 C222.884377,81.4783969 226.975326,77.9255118 230.003121,73.345204 C233.030916,68.7690004 234.685929,63.4800308 234.964047,57.4837677 C235.196955,52.5313441 234.298206,48.1959213 232.269172,44.4816036 C230.240139,40.7645497 227.208233,37.9148541 223.177566,35.9284123" id="Fill-33"></path>
                        <polygon id="Fill-35" points="236 87 254.280091 86.8987134 265 32 246.719909 32.1026554"></polygon>
                        <path d="M308.429154,65.51392 C307.26061,67.8056387 305.696112,69.6166819 303.731523,70.9497732 C301.766934,72.2842261 299.653345,72.9568994 297.393516,72.9691545 C295.500667,72.9786864 293.74992,72.4571604 292.141275,71.4018532 C290.53125,70.3506311 289.249576,68.8895413 288.293495,67.0267539 C287.334654,65.1639665 286.850405,63.0928411 286.837988,60.8092925 C286.822812,58.1117912 287.439505,55.6307981 288.688068,53.3649515 C289.93801,51.1018282 291.56873,49.3152953 293.587124,48.0067144 C295.60276,46.7008569 297.741182,46.0377154 300.002391,46.0240986 C302.89133,46.00912 305.301539,47.1257031 307.235776,49.3711244 C309.165875,51.6192691 310.142651,54.4788112 310.161966,57.9551972 C310.178521,60.7058043 309.599078,63.223563 308.429154,65.51392 M315.663919,34.2278069 C311.473991,32.0450232 306.671509,30.9706524 301.257852,31.0006095 C295.055048,31.0346516 289.409613,32.4017851 284.327066,35.1020097 C279.24314,37.8008727 275.240842,41.5182774 272.325689,46.2555853 C269.407778,50.9969783 267.967447,56.2939395 268.000558,62.1573623 C268.02953,67.1384122 269.207732,71.593851 271.54482,75.5236788 C273.880529,79.4548682 277.143348,82.5254716 281.333275,84.7300424 C285.527342,86.9373365 290.329824,88.0280475 295.744861,87.9994521 C301.947665,87.9640482 307.588961,86.5724045 312.672887,83.819074 C317.755434,81.0657435 321.756353,77.3074883 324.674264,72.54567 C327.592176,67.7838517 329.033886,62.4691886 328.999396,56.6057657 C328.971803,51.6260776 327.789463,47.1951491 325.456513,43.3184272 C323.120804,39.4403435 319.856606,36.4105906 315.663919,34.2278069" id="Fill-37"></path>
                        <polygon id="Fill-39" points="403.350191 32.1034935 389.388651 67.902721 386.823528 32.1947312 369.042529 32.3703979 355.076858 68.093367 352.515865 32.3840154 333 32.4915942 342.043333 87 360.850106 86.8965065 374.044725 54.2892372 376.355126 86.8107158 395.161899 86.7072223 422 32"></polygon>
                        <path d="M442.771075,49.1817392 L445.754369,65.0868345 L434.344841,65.1496573 L442.771075,49.1817392 Z M423.442555,85.8975715 L427.540141,78.144418 L448.092331,78.0296981 L449.541594,85.7500745 L469,85.6421832 L455.487674,31 L436.889254,31.1051599 L405,86 L423.442555,85.8975715 Z" id="Fill-41"></path>
                        <polygon id="Fill-43" points="498.044692 85.8948166 528 31 509.323266 31.1038174 492.18546 67.0328341 486.545483 31.2294911 467 31.3387726 479.129397 86"></polygon>
                        <polygon id="Fill-45" points="523 86 566.488596 85.7569875 569.126335 72.0090354 543.655924 72.1510202 545.021165 65.356228 570.431566 65.2128779 573.070669 51.4649258 547.673907 51.6082758 549.037784 44.889937 574.359533 44.7479521 577 31 533.605511 31.2430125"></polygon>
                        <polygon id="Fill-47" points="487.550641 97.4168393 458.608313 97.574997 344.822295 98.1955648 315.879968 98.3537224 235.196385 98.7946875 91.8023669 99.5760936 3.61933501 100.058609 -3.41060513e-13 119 88.0032317 118.518825 231.546854 117.736079 312.202987 117.295114 349.774347 117.091385 446.29132 116.5633 483.914836 116.358231 560.272236 115.941391 564 97"></polygon>
                        <polygon id="Fill-49" points="105.972926 21.5202242 248.857972 20.7389133 401.749976 19.9039961 428.961278 19.7565789 578.275843 18.9390838 582 0 441.757241 0.766569201 396.195278 1.01583821 252.505343 1.79982943 109.703939 2.57980019 21.6144617 3.06225634 18 22"></polygon>
                    </g>
                    <g id="hacky-corners" transform="translate(0.017605, 0.982700)" fill-opacity="0.01" fill="#FA8C63">
                        <rect id="Rectangle-3" x="0" y="10" width="1" height="1"></rect>
                        <rect id="Rectangle-3" x="2" y="142" width="1" height="1"></rect>
                        <rect id="Rectangle-3" x="597" y="132" width="1" height="1"></rect>
                        <rect id="Rectangle-3" x="595" y="0" width="1" height="1"></rect>
                    </g>
                </g>
            </g>
        </g>
    </g>
</svg>