<?xml version="1.0" encoding="UTF-8"?>
<svg width="607px" height="155px" viewBox="0 0 607 155" version="1.1" xmlns="http://www.w3.org/2000/svg" xmlns:xlink="http://www.w3.org/1999/xlink">
    <!-- Generator: Sketch 47.1 (45422) - http://www.bohemiancoding.com/sketch -->
    <title>Purple</title>
    <desc>Created with Sketch.</desc>
    <defs>
        <polygon id="path-1" points="565.798782 28.3641484 565.798782 0.0633241758 0.960930211 0.0633241758 0.960930211 28.3641484"></polygon>
    </defs>
    <g id="Welcome" stroke="none" stroke-width="1" fill="none" fill-rule="evenodd">
        <g id="04-copy-3" transform="translate(-404.000000, -131.000000)">
            <g id="Logo" transform="translate(708.809699, 210.693652) rotate(-1.000000) translate(-708.809699, -210.693652) translate(404.809699, 136.193652)">
                <g id="Purple" transform="translate(0.000000, 0.000000)">
                    <g transform="translate(22.000000, 24.000000)">
                        <path d="M35.9237213,44.1862637 C36.5824567,43.7769231 37.4635152,43.5832418 38.5614075,43.5997253 C40.8628642,43.6381868 43.7654169,44.3373626 47.274555,45.7013736 C50.7823208,47.0667582 53.9071967,48.6340659 56.6519274,50.4046703 L64.9506206,36.6395604 C62.0027799,34.6038462 58.4730562,32.9527473 54.3614496,31.6807692 C50.2498431,30.4142857 46.0517775,29.7425824 41.7631358,29.6752747 C36.7443958,29.5942308 32.3006768,30.3222527 28.4333513,31.8565934 C24.5646534,33.3936813 21.5358431,35.6313187 19.3441756,38.5804945 C17.1525082,41.5282967 16.0257963,44.9664835 15.9626674,48.8923077 C15.9091452,52.2398352 16.7133513,54.9623626 18.3835199,57.0557692 C20.0468267,59.1505495 22.0367564,60.7123626 24.3464473,61.743956 C26.6588829,62.7755495 29.5559461,63.7906593 33.0431265,64.7906593 C36.0129251,65.6203297 38.1716557,66.3771978 39.5193185,67.0516484 C40.869726,67.7288462 41.5353232,68.6656593 41.5147377,69.8717033 C41.4982693,70.9706044 41.0659742,71.7879121 40.2219696,72.3222527 C39.3738478,72.857967 38.2183162,73.1175824 36.7553747,73.0942308 C33.9337916,73.0502747 30.535815,72.1436813 26.5628173,70.3771978 C22.591192,68.6120879 19.3688782,66.5063187 16.8972482,64.0585165 L8.52033021,77.6684066 C11.8222412,80.4953297 15.8542506,82.743956 20.6108689,84.417033 C25.3729766,86.0873626 30.179,86.9637363 35.0440351,87.0406593 C39.5906815,87.1134615 43.7736511,86.4733516 47.5847096,85.1244505 C51.3971405,83.7700549 54.4657494,81.6354396 56.7891639,78.7151099 C59.1098337,75.7947802 60.3065363,72.1862637 60.3737822,67.8950549 C60.4300492,64.3923077 59.6121194,61.5516484 57.919993,59.3771978 C56.2306112,57.2041209 54.2297026,55.575 51.9186393,54.4925824 C49.6089485,53.4074176 46.6844379,52.3126374 43.1478525,51.210989 C40.2823536,50.3799451 38.1894965,49.6134615 36.8665363,48.9101648 C35.5449485,48.2123626 34.8944473,47.2824176 34.9122881,46.1299451 C34.9260117,45.243956 35.2622412,44.5928571 35.9237213,44.1862637" id="Fill-1" fill="#BE56AA"></path>
                        <polygon id="Fill-3" fill="#BE56AA" points="70.9967133 31.4774725 67.8636033 45.7961538 83.4701419 46.0447802 74.6650459 86.5763736 92.8598656 86.8675824 101.664962 46.335989 117.349725 46.5873626 120.484207 32.2686813"></polygon>
                        <path d="M160.243415,32.906044 L153.384333,64.5159341 C152.817547,67.1766484 151.60712,69.3167582 149.751682,70.9348901 C147.894872,72.5557692 145.815739,73.3456044 143.517027,73.3098901 C141.528469,73.2782967 139.89261,72.6230769 138.606704,71.3456044 C137.319425,70.0695055 136.693626,68.3826923 136.726563,66.292033 C136.737542,65.6134615 136.828118,64.9321429 136.992802,64.2521978 L143.851884,32.6436813 L125.657064,32.3524725 L118.797982,63.960989 C118.399996,65.9486264 118.190024,67.6175824 118.169439,68.9774725 C118.107682,72.8524725 119.007954,76.2412088 120.870254,79.1491758 C122.731181,82.0585165 125.389453,84.314011 128.840952,85.9129121 C132.295195,87.5104396 136.346418,88.3483516 141.000109,88.4239011 C146.226076,88.5076923 150.962109,87.5887363 155.202718,85.6684066 C159.444699,83.743956 162.97854,81.0008242 165.808357,77.4348901 C168.636802,73.868956 170.56223,69.6574176 171.579153,64.8071429 L178.438235,33.1972527 L160.243415,32.906044 Z" id="Fill-5" fill="#BE56AA"></path>
                        <path d="M215.435558,67.0388736 C214.27042,69.4550824 212.682593,71.3135989 210.674822,72.6171703 C208.667052,73.9193681 206.434214,74.5539835 203.97768,74.5127747 L196.528481,74.3932692 L202.211445,47.7092033 L207.543085,47.7943681 C210.62679,47.8424451 213.028429,48.8644231 214.750748,50.8548077 C216.468949,52.8451923 217.303347,55.4880495 217.251197,58.7847527 C217.201792,61.8754121 216.596579,64.6240385 215.435558,67.0388736 M224.660598,36.9578297 C220.667015,34.879533 215.899417,33.7957418 210.357806,33.706456 L187.064649,33.3342033 L175.285637,88.1872253 L200.458935,88.5883242 C207.047661,88.695467 212.948832,87.5333791 218.16382,85.1034341 C223.381553,82.6748626 227.556289,79.1968407 230.686654,74.6638736 C233.819764,70.1364011 235.590115,64.8616758 235.997708,58.8493132 C236.338054,53.8836538 235.532476,49.5100275 233.580972,45.7394231 C231.629469,41.9646978 228.654181,39.0375 224.660598,36.9578297" id="Fill-7" fill="#BE56AA"></path>
                        <polygon id="Fill-9" fill="#BE56AA" points="236.456489 89.1644231 254.651309 89.4556319 266.508546 34.6053571 248.313726 34.3141484"></polygon>
                        <path d="M308.688057,68.9638736 C307.474886,71.2482143 305.878825,73.0421703 303.89713,74.3443681 C301.914062,75.6479396 299.796502,76.2798077 297.54994,76.2440934 C295.668427,76.2138736 293.939247,75.6493132 292.361027,74.5517857 C290.782807,73.4570055 289.539444,71.9570055 288.629565,70.0572802 C287.716942,68.1575549 287.279158,66.0586538 287.317584,63.7550824 C287.360127,61.0353022 288.027097,58.5449176 289.319865,56.2866758 C290.609889,54.0311813 292.271823,52.2660714 294.307041,50.9872253 C296.339514,49.7125 298.481776,49.0916209 300.729711,49.1273352 C303.604816,49.1740385 305.976263,50.3498626 307.850914,52.6561813 C309.721448,54.9666209 310.631326,57.8718407 310.575059,61.3773352 C310.531144,64.1506868 309.901228,66.679533 308.688057,68.9638736 M316.562689,37.5668956 C312.442849,35.2756868 307.688975,34.0875 302.305186,34.0009615 C296.136404,33.9034341 290.491865,35.1603022 285.379804,37.7743132 C280.263626,40.3869505 276.202797,44.0504121 273.201434,48.7660714 C270.195954,53.4831044 268.647926,58.7976648 268.553233,64.7097527 C268.473636,69.734478 269.548198,74.2537088 271.786526,78.2646978 C274.024853,82.2811813 277.204624,85.4487637 281.324465,87.7619505 C285.445678,90.0778846 290.198179,91.2811813 295.583341,91.3677198 C301.753495,91.4666209 307.393917,90.1822802 312.510095,87.5160714 C317.6249,84.8471154 321.685729,81.1438187 324.689837,76.4034341 C327.696689,71.6644231 329.244718,66.3347527 329.339411,60.4212912 C329.417636,55.3979396 328.338956,50.9048077 326.103373,46.9446429 C323.865045,42.9817308 320.685275,39.8581044 316.562689,37.5668956" id="Fill-11" fill="#BE56AA"></path>
                        <polygon id="Fill-13" fill="#BE56AA" points="404.2228 36.8096154 389.533001 72.6118132 387.753044 36.5458791 370.030318 36.3412088 355.337774 72.0651099 353.560561 35.9978022 334.1114 35.6873626 341.936627 90.8535714 360.680393 91.153022 374.537165 58.5527473 376.131854 91.3989011 394.87562 91.6997253 422.808744 37.1063187"></polygon>
                        <path d="M443.770801,55.6581044 L446.419466,71.7157967 L434.96845,71.534478 L443.770801,55.6581044 Z M423.57919,92.1581044 L427.858225,84.4534341 L448.484876,84.7831044 L449.772155,92.5784341 L469.302286,92.8902473 L456.926295,37.6526099 L438.260754,37.354533 L405.068726,91.8627747 L423.57919,92.1581044 Z" id="Fill-15" fill="#BE56AA"></path>
                        <polygon id="Fill-17" fill="#BE56AA" points="498.706997 93.3604396 529.701868 38.8164835 511.115925 38.5197802 493.286154 74.2725275 488.449939 38.1571429 469.000777 37.8453297 479.885007 93.0596154"></polygon>
                        <polygon id="Fill-19" fill="#BE56AA" points="522.943106 93.7480769 566.696858 94.4486264 569.650188 80.6766484 544.022638 80.2673077 545.544591 73.4596154 571.110385 73.868956 574.062343 60.096978 548.511645 59.689011 550.028109 52.960989 575.506071 53.368956 578.458029 39.596978 534.800343 38.8978022"></polygon>
                        <polygon id="Fill-21" fill="#BE56AA" points="487.856665 104.45 458.921714 103.987088 345.160862 102.167033 316.225911 101.704121 235.559649 100.414286 92.1982482 98.1203297 4.0347541 96.7082418 0 116.037912 87.9809696 117.445879 231.491958 119.741209 312.132145 121.031044 349.693785 121.632692 446.190281 123.176648 483.805443 123.778297 560.146009 124.999451 564.290553 105.672527"></polygon>
                        <g id="Group-25" transform="translate(19.213115, 0.000000)">
                            <mask id="mask-2" fill="white">
                                <use xlink:href="#path-1"></use>
                            </mask>
                            <g id="Clip-24"></g>
                            <polygon id="Fill-23" fill="#BE56AA" mask="url(#mask-2)" points="89.0009115 20.8009615 231.990401 23.0894231 384.998157 25.5372253 412.227258 25.9726648 561.654513 28.3641484 565.799057 9.03722527 425.45137 6.79134615 379.855904 6.06195055 236.059464 3.76112637 93.1509443 1.47403846 4.99568431 0.0633241758 0.960930211 19.3929945"></polygon>
                        </g>
                    </g>
                    <g id="hacky-corners" transform="translate(0.246618, 0.740346)" fill-opacity="0.01" fill="#FA8C63">
                        <rect id="Rectangle-3" x="0" y="10" width="1" height="1"></rect>
                        <rect id="Rectangle-3" x="2" y="142" width="1" height="1"></rect>
                        <rect id="Rectangle-3" x="597" y="132" width="1" height="1"></rect>
                        <rect id="Rectangle-3" x="595" y="0" width="1" height="1"></rect>
                    </g>
                </g>
            </g>
        </g>
    </g>
</svg>