<?xml version="1.0" encoding="UTF-8"?>
<svg width="601px" height="154px" viewBox="0 0 601 154" version="1.1" xmlns="http://www.w3.org/2000/svg" xmlns:xlink="http://www.w3.org/1999/xlink">
    <!-- Generator: Sketch 47.1 (45422) - http://www.bohemiancoding.com/sketch -->
    <title>Black</title>
    <desc>Created with Sketch.</desc>
    <defs></defs>
    <g id="Welcome" stroke="none" stroke-width="1" fill="none" fill-rule="evenodd">
        <g id="04-copy-3" transform="translate(-405.000000, -134.000000)">
            <g id="Logo" transform="translate(706.810003, 210.728557) rotate(-1.000000) translate(-706.810003, -210.728557) translate(400.810003, 136.228557)">
                <g id="Black" transform="translate(6.000000, 3.000000)">
                    <path d="M50.1514887,62.9613087 C49.4939126,63.374475 49.1644382,64.0278543 49.1603198,64.915956 C49.1534557,66.066233 49.8151502,66.9872782 51.146776,67.6722284 C52.4756561,68.3612965 54.5774284,69.1025251 57.4520927,69.9027775 C61.0021796,70.9638325 63.9399932,72.0262602 66.261415,73.0859426 C68.5855825,74.1415071 70.6036133,75.7461298 72.3182531,77.9011834 C74.0328929,80.0534917 74.8840352,82.8852595 74.8661886,86.3841331 C74.8428509,90.6736506 73.6869448,94.2919444 71.3984704,97.2362692 C69.1058775,100.179221 66.0596119,102.345256 62.2610464,103.739864 C58.4624809,105.130354 54.2863926,105.816677 49.7369,105.791969 C44.8702883,105.768634 40.0530977,104.945047 35.2716001,103.32807 C30.4955938,101.708349 26.4375672,99.5052524 23.1057572,96.7160365 L31.3343808,83.0252694 C33.8328952,85.4452436 37.0809638,87.5151931 41.0717227,89.235118 C45.0666001,90.955043 48.4739147,91.8239276 51.2977851,91.8376541 C52.7598278,91.84589 53.9129883,91.5741061 54.7558937,91.0291658 C55.5946806,90.4855982 56.0175061,89.6633835 56.0229974,88.565267 C56.0298614,87.3614568 55.3530661,86.4308031 53.9967297,85.7705606 C52.6403933,85.1116907 50.474099,84.3786979 47.4937283,83.5798182 C43.9958082,82.6189663 41.0854508,81.636152 38.7626562,80.6313754 C36.4398615,79.6265989 34.4328132,78.0864905 32.7456296,76.012423 C31.0529547,73.9369829 30.2169134,71.2273805 30.2347599,67.8808705 C30.2553521,63.9578494 31.3453633,60.5097637 33.5047936,57.5407312 C35.6642238,54.5716988 38.6706779,52.2985977 42.522783,50.7241732 C46.3762609,49.1483761 50.8118103,48.3714587 55.8335496,48.3975389 C60.1235811,48.4195013 64.331244,49.0426824 68.4565383,50.2657096 C72.5832055,51.4914821 76.1332923,53.1015954 79.1040534,55.1042853 L70.9509343,68.9487888 C68.1874676,67.2110195 65.0451053,65.6777743 61.5211018,64.350426 C57.9957255,63.0271957 55.0839953,62.3600899 52.7817928,62.3477361 C51.6835447,62.3422455 50.8063191,62.5453971 50.1514887,62.9613087 Z M85.093761,49.8808198 L134.601411,50.1320139 L131.625159,64.4734151 L115.932567,64.3938016 L107.565289,104.988422 L89.3632004,104.896455 L97.7291051,64.3004617 L82.116136,64.2208483 L85.093761,49.8808198 Z M174.380094,50.3339301 L192.583555,50.4258973 L186.066826,82.0873406 C185.10174,86.946506 183.22099,91.1756271 180.43144,94.7692133 C177.640517,98.3627995 174.13436,101.142407 169.912969,103.110781 C165.692951,105.076409 160.966366,106.045497 155.73596,106.019417 C151.079388,105.996082 147.018616,105.202692 143.546779,103.641994 C140.076315,102.082669 137.393844,99.8576105 135.500739,96.9723095 C133.606261,94.0856358 132.667259,90.7089276 132.687851,86.8366944 C132.694715,85.4777753 132.885536,83.8072656 133.261686,81.8196747 L139.778415,50.1582314 L157.981877,50.2501987 L151.465148,81.911642 C151.305902,82.5911016 151.224906,83.2719338 151.220787,83.9500207 C151.209805,86.0419326 151.855026,87.7193055 153.157822,88.9807668 C154.456501,90.2436008 156.101127,90.8791357 158.090329,90.8901168 C160.389786,90.901098 162.458611,90.0884918 164.300922,88.449553 C166.139115,86.8106141 167.325222,84.6596785 167.863364,81.9940007 L174.380094,50.3339301 Z M238.858649,53.6807146 C242.875492,55.716348 245.883319,58.6071396 247.876639,62.35858 C249.869959,66.1059025 250.72522,70.4667975 250.43693,75.4316567 C250.0951,81.445217 248.38046,86.7340205 245.297129,91.2925765 C242.21517,95.8552505 238.077521,99.3760864 232.885553,101.860575 C227.693585,104.345063 221.805603,105.569463 215.211996,105.53652 L190.029168,105.408864 L201.213451,50.4700965 L224.51553,50.5895167 C230.06031,50.6183422 234.841807,51.6478264 238.858649,53.6807146 Z M229.958722,83.8404836 C231.092663,81.4136462 231.669243,78.6614918 231.684344,75.5730392 C231.70219,72.2773171 230.838693,69.6459555 229.09797,67.6762091 C227.354501,65.70509 224.939728,64.7112946 221.855024,64.6961955 L216.520284,64.6687426 L211.126513,91.3955249 L218.579499,91.433959 C221.036829,91.4463128 223.263527,90.7888156 225.25822,89.4655852 C227.25154,88.1409822 228.820662,86.2659484 229.958722,83.8404836 Z M251.22657,105.719631 L262.489104,50.7836088 L280.692566,50.875576 L269.430032,105.811598 L251.22657,105.719631 Z M330.791622,53.2870398 C334.941627,55.532688 338.155376,58.6197679 340.438359,62.5551429 C342.717224,66.4863999 343.845674,70.9653424 343.81959,75.9851074 C343.789388,81.8957193 342.298517,87.2366833 339.345602,92.0066268 C336.389942,96.7765702 332.368981,100.521147 327.28272,103.243104 C322.193713,105.963687 316.565192,107.307507 310.393037,107.275936 C305.004758,107.248483 300.238361,106.098206 296.089729,103.827851 C291.943843,101.561613 288.730094,98.4333534 286.448484,94.4430727 C284.164128,90.4582825 283.039796,85.956005 283.06588,80.9348674 C283.096082,75.0242555 284.586953,69.6983905 287.539868,64.9504094 C290.492782,60.2065463 294.513743,56.5031484 299.60275,53.8347254 C304.689012,51.167675 310.318906,49.8485626 316.49106,49.8815061 C321.879339,49.9075863 326.645736,51.0427643 330.791622,53.2870398 Z M323.256268,84.7467042 C324.445121,82.4502681 325.047785,79.917737 325.061513,77.1463655 C325.07936,73.6420013 324.138985,70.7484644 322.241761,68.4616369 C320.341792,66.1775546 317.957221,65.0272776 315.081184,65.0121785 C312.831148,65.0011973 310.696428,65.6463407 308.677025,66.9407455 C306.654876,68.2406409 305.011622,70.0223349 303.744518,72.2913181 C302.477414,74.5616739 301.836312,77.0557709 301.823957,79.7749819 C301.811602,82.0769085 302.271493,84.1701931 303.205004,86.0575808 C304.134396,87.9449684 305.394636,89.430171 306.985723,90.5076978 C308.57681,91.5879699 310.312042,92.1342828 312.194164,92.1438913 C314.4442,92.1534998 316.554209,91.5001205 318.522819,90.1755175 C320.491428,88.8509145 322.068787,87.0431403 323.256268,84.7467042 Z M418.466688,51.5752135 L437.0614,51.669926 L409.715023,106.524962 L390.96381,106.430249 L389.010302,73.6253923 L375.504596,106.352009 L356.753383,106.255923 L348.324329,51.2183256 L367.782539,51.3185288 L369.951579,87.3367492 L384.259006,51.4805009 L401.990221,51.4914821 L404.162007,87.5110752 L418.466688,51.5752135 Z M438.431328,106.670874 L419.913492,106.577534 L452.520477,51.7499513 L471.192067,51.8432912 L484.171987,106.904224 L464.635526,106.805393 L463.262716,99.0293562 L442.628008,98.9250351 L438.431328,106.670874 Z M458.231367,69.9786848 L449.599138,85.9384351 L461.055238,85.9960862 L458.231367,69.9786848 Z M513.592817,107.053431 L494.761981,106.958718 L483.272933,51.9046484 L502.731144,52.0034789 L507.960177,88.0381711 L525.405848,52.1187811 L544.00056,52.2148663 L513.592817,107.053431 Z M537.838153,107.176831 L549.100687,52.2408093 L592.779386,52.4631779 L589.976107,66.2555209 L564.48577,66.1264922 L563.041574,72.8648094 L588.60467,72.9952107 L585.801392,86.7875537 L560.224567,86.658525 L558.777625,93.4764557 L584.416227,93.606857 L581.611576,107.400573 L537.838153,107.176831 Z M502.859639,118.25312 L579.326533,118.641579 L575.39206,138 L499.017143,137.611541 L461.385673,137.419371 L364.848295,136.927964 L327.268992,136.737166 L246.594434,136.326745 L103.019091,135.596498 L15,135.149015 L18.8246489,115.790594 L107.027697,116.239449 L250.452031,116.968324 L331.152672,117.378745 L360.102491,117.526991 L473.912565,118.106247 L502.859639,118.25312 Z M122.205211,38.8059033 L34.1270884,38.3584208 L37.9517373,19 L126.146548,19.4488551 L269.117855,20.1763573 L412.977369,20.9079774 L458.59173,21.1399545 L599,21.8537302 L595.065526,41.212151 L445.574745,40.4503327 L418.331329,40.3130682 L265.258886,39.5334055 L122.205211,38.8059033 Z" fill="#543141"></path>
                    <g id="hacky-corners" transform="translate(0.052357, 0.000457)" fill-opacity="0.01" fill="#FA8C63">
                        <rect id="Rectangle-3" x="0" y="10" width="1" height="1"></rect>
                        <rect id="Rectangle-3" x="2" y="142" width="1" height="1"></rect>
                        <rect id="Rectangle-3" x="597" y="132" width="1" height="1"></rect>
                        <rect id="Rectangle-3" x="595" y="0" width="1" height="1"></rect>
                    </g>
                </g>
            </g>
        </g>
    </g>
</svg>